<svg width="117" height="40" viewBox="0 0 117 40" fill="none" xmlns="http://www.w3.org/2000/svg">
<path d="M0 20H10.0663V40H0V20Z" fill="black"/>
<path d="M15.0994 10H25.1657V30H15.0994V10Z" fill="black"/>
<path d="M5.03314 10H25.1657V15H5.03314V10Z" fill="black"/>
<path d="M15.0994 10H25.1657V30H15.0994V10Z" fill="black"/>
<path d="M5.03314 10H25.1657V15H5.03314V10Z" fill="black"/>
<path d="M30.1989 0H40.2652V20H30.1989V0Z" fill="black"/>
<path d="M10.0663 0H40.2652V5H10.0663V0Z" fill="black"/>
<path d="M60.4814 30.5V9.38H74.1011V12.5872H64.3327V18.3209H73.1668V21.5281H64.3327V30.5H60.4814Z" fill="black"/>
<path d="M81.2016 9.38V30.5H77.4437V9.38H81.2016Z" fill="black"/>
<path d="M92.021 30.8094C90.4639 30.8094 89.1144 30.4691 87.9725 29.7884C86.8306 29.1078 85.9448 28.1556 85.315 26.9319C84.6922 25.7081 84.3807 24.2781 84.3807 22.6419C84.3807 21.0056 84.6922 19.5722 85.315 18.3416C85.9448 17.1109 86.8306 16.1553 87.9725 15.4747C89.1144 14.7941 90.4639 14.4537 92.021 14.4537C93.5782 14.4537 94.9277 14.7941 96.0696 15.4747C97.2115 16.1553 98.0939 17.1109 98.7167 18.3416C99.3465 19.5722 99.6614 21.0056 99.6614 22.6419C99.6614 24.2781 99.3465 25.7081 98.7167 26.9319C98.0939 28.1556 97.2115 29.1078 96.0696 29.7884C94.9277 30.4691 93.5782 30.8094 92.021 30.8094ZM92.0418 27.8188C92.8861 27.8188 93.592 27.5884 94.1595 27.1278C94.727 26.6603 95.1491 26.0347 95.426 25.2509C95.7097 24.4672 95.8516 23.5941 95.8516 22.6316C95.8516 21.6622 95.7097 20.7856 95.426 20.0019C95.1491 19.2113 94.727 18.5822 94.1595 18.1147C93.592 17.6472 92.8861 17.4134 92.0418 17.4134C91.1767 17.4134 90.457 17.6472 89.8826 18.1147C89.3151 18.5822 88.8895 19.2113 88.6057 20.0019C88.3289 20.7856 88.1905 21.6622 88.1905 22.6316C88.1905 23.5941 88.3289 24.4672 88.6057 25.2509C88.8895 26.0347 89.3151 26.6603 89.8826 27.1278C90.457 27.5884 91.1767 27.8188 92.0418 27.8188Z" fill="black"/>
<path d="M109.91 30.8094C108.311 30.8094 106.931 30.4794 105.768 29.8194C104.612 29.1525 103.723 28.2106 103.1 26.9937C102.477 25.77 102.166 24.3297 102.166 22.6728C102.166 21.0434 102.477 19.6134 103.1 18.3828C103.73 17.1453 104.609 16.1828 105.737 15.4953C106.865 14.8009 108.19 14.4537 109.713 14.4537C110.695 14.4537 111.623 14.6119 112.495 14.9281C113.374 15.2375 114.149 15.7187 114.82 16.3719C115.498 17.025 116.031 17.8569 116.419 18.8675C116.806 19.8713 117 21.0675 117 22.4562V23.6009H103.93V21.0847H113.398C113.391 20.3697 113.235 19.7337 112.931 19.1769C112.626 18.6131 112.201 18.1697 111.654 17.8466C111.114 17.5234 110.484 17.3619 109.765 17.3619C108.996 17.3619 108.322 17.5475 107.74 17.9187C107.159 18.2831 106.706 18.7644 106.38 19.3625C106.062 19.9537 105.899 20.6034 105.892 21.3116V23.5081C105.892 24.4294 106.062 25.22 106.401 25.88C106.74 26.5331 107.214 27.035 107.823 27.3856C108.432 27.7294 109.145 27.9012 109.962 27.9012C110.508 27.9012 111.003 27.8256 111.446 27.6744C111.889 27.5163 112.273 27.2859 112.599 26.9834C112.924 26.6809 113.169 26.3063 113.336 25.8594L116.844 26.2512C116.623 27.1725 116.201 27.9769 115.578 28.6644C114.962 29.345 114.173 29.8744 113.211 30.2525C112.249 30.6238 111.149 30.8094 109.91 30.8094Z" fill="black"/>
</svg>
